mtllib beacon.mtl
o Textured_Beacon

v -0.45 -0.70  0.45
v  0.45 -0.70  0.45
v  0.45  0.60  0.45
v -0.45  0.60  0.45
v -0.45 -0.70 -0.45
v  0.45 -0.70 -0.45
v  0.45  0.60 -0.45
v -0.45  0.60 -0.45
v  0.00  1.15  0.00
v -0.62 -0.92  0.62
v  0.62 -0.92  0.62
v  0.62 -0.92 -0.62
v -0.62 -0.92 -0.62

vt 0.00 0.00
vt 1.00 0.00
vt 1.00 1.00
vt 0.00 1.00
vt 0.50 1.00

vn  0.000  0.000  1.000
vn  1.000  0.000  0.000
vn  0.000  0.000 -1.000
vn -1.000  0.000  0.000
vn  0.000  1.000  0.000
vn  0.000 -1.000  0.000
vn  0.000  0.650  0.760
vn  0.760  0.650  0.000
vn  0.000  0.650 -0.760
vn -0.760  0.650  0.000

usemtl beacon_material
s off
f 1/1/1 2/2/1 3/3/1 4/4/1
f 2/1/2 6/2/2 7/3/2 3/4/2
f 6/1/3 5/2/3 8/3/3 7/4/3
f 5/1/4 1/2/4 4/3/4 8/4/4
f 4/1/5 3/2/5 7/3/5 8/4/5
f 10/1/6 13/2/6 12/3/6 11/4/6
f 10/1/1 11/2/1 2/3/1 1/4/1
f 11/1/2 12/2/2 6/3/2 2/4/2
f 12/1/3 13/2/3 5/3/3 6/4/3
f 13/1/4 10/2/4 1/3/4 5/4/4
f 4/1/7 3/2/7 9/5/7
f 3/1/8 7/2/8 9/5/8
f 7/1/9 8/2/9 9/5/9
f 8/1/10 4/2/10 9/5/10
